<svg width="1200" height="1200" viewBox="0 0 1200 1200" fill="none" xmlns="http://www.w3.org/2000/svg">
  <rect width="1200" height="1200" rx="64" fill="#F6EBDD"/>
  <rect x="78" y="78" width="1044" height="1044" rx="52" fill="#FFF8EE"/>
  <rect x="158" y="158" width="884" height="884" rx="72" fill="#E8D6C0"/>
  <circle cx="878" cy="304" r="118" fill="#E4AD39"/>
  <path d="M617 903C462.361 903 337 777.639 337 623C337 468.361 462.361 343 617 343C771.639 343 897 468.361 897 623C897 777.639 771.639 903 617 903Z" fill="#F4E7D7"/>
  <circle cx="618" cy="624" r="226" fill="#FFF6ED"/>
  <path d="M513 462H723L669 576H567L513 462Z" fill="#D8A35D"/>
  <path d="M554 576H682L696 748C698.207 775.161 676.738 798 649.5 798H586.5C559.262 798 537.793 775.161 540 748L554 576Z" fill="#6E4528"/>
  <rect x="498" y="799" width="239" height="63" rx="31.5" fill="#3B2518"/>
  <path d="M817 395C817 395 759 415 709 473" stroke="#3B2518" stroke-width="34" stroke-linecap="round"/>
  <path d="M775 353C775 353 842 328 897 343C952 358 982 400 982 400" stroke="#3B2518" stroke-width="34" stroke-linecap="round"/>
  <ellipse cx="340" cy="796" rx="72" ry="64" fill="#8A5631"/>
  <ellipse cx="307" cy="679" rx="54" ry="48" fill="#9A643D"/>
  <ellipse cx="891" cy="806" rx="64" ry="58" fill="#7D4E2D"/>
  <ellipse cx="925" cy="699" rx="48" ry="43" fill="#98633B"/>
  <rect x="234" y="955" width="731" height="74" rx="37" fill="#CFA77B"/>
  <path d="M278 955H922L878 1040H322L278 955Z" fill="#B27A4C"/>
</svg>
